<svg xmlns="http://www.w3.org/2000/svg" viewBox="0 0 200 200">
  <defs>
    <radialGradient id="bg" cx="50%" cy="40%" r="60%">
      <stop offset="0%" stop-color="#1a1030"/>
      <stop offset="100%" stop-color="#060410"/>
    </radialGradient>
  </defs>
  <rect width="200" height="200" rx="16" fill="url(#bg)"/>

  <!-- Purple robe with gold trim -->
  <path d="M0 200L0 150Q50 138Q100 143Q150 138Q200 150L200 200Z" fill="#5a3878"/>
  <path d="M70 143Q100 149Q130 143" stroke="#c8a820" stroke-width="2" fill="none"/>

  <!-- Neck -->
  <ellipse cx="100" cy="138" rx="15" ry="11" fill="#d4b890"/>

  <!-- Face — elder, longer -->
  <ellipse cx="100" cy="96" rx="42" ry="48" fill="#d4b890"/>

  <!-- Hair — full flowing white -->
  <path d="M60 90Q56 62Q68 46Q84 32Q100 28Q116 30Q132 38Q146 54Q148 82Q146 94Q140 70Q128 54Q112 46Q100 44Q86 45Q72 54Q62 72Q60 90Z" fill="#e8e0d0"/>
  <path d="M60 90Q54 106Q52 122Q58 138Q66 152" stroke="#d0c8b8" stroke-width="3" fill="none" stroke-linecap="round"/>
  <path d="M140 90Q146 106Q148 122Q142 138Q134 152" stroke="#d0c8b8" stroke-width="3" fill="none" stroke-linecap="round"/>

  <!-- Eyebrows — arched, wise, one slightly raised -->
  <path d="M72 83Q82 77Q90 80" stroke="#907860" stroke-width="2" stroke-linecap="round" fill="none"/>
  <path d="M110 79Q119 76Q128 81" stroke="#907860" stroke-width="2" stroke-linecap="round" fill="none"/>

  <!-- Left eye — hooded, knowing -->
  <ellipse cx="83" cy="94" rx="10" ry="10" fill="#f4eee4"/>
  <path d="M73 90Q83 84Q93 90Q89 94Q77 94Z" fill="#d4b890"/>
  <ellipse cx="83" cy="94" rx="6.5" ry="7" fill="#4a3020"/>
  <circle cx="83" cy="94" r="4.5" fill="#140c04"/>
  <circle cx="86" cy="91" r="1.6" fill="white"/>
  <path d="M73 94Q83 100Q93 94" stroke="#907860" stroke-width="1" fill="none" stroke-linecap="round"/>

  <!-- Right eye -->
  <ellipse cx="117" cy="94" rx="10" ry="10" fill="#f4eee4"/>
  <path d="M107 90Q117 84Q127 90Q123 94Q111 94Z" fill="#d4b890"/>
  <ellipse cx="117" cy="94" rx="6.5" ry="7" fill="#4a3020"/>
  <circle cx="117" cy="94" r="4.5" fill="#140c04"/>
  <circle cx="120" cy="91" r="1.6" fill="white"/>
  <path d="M107 94Q117 100Q127 94" stroke="#907860" stroke-width="1" fill="none" stroke-linecap="round"/>

  <!-- Nose — prominent, elder -->
  <path d="M96 108Q100 115Q104 108" stroke="#b09070" stroke-width="1.5" fill="none" stroke-linecap="round"/>

  <!-- Mouth — thin, knowing half-smile -->
  <path d="M88 121Q100 119Q112 121" stroke="#907060" stroke-width="2" fill="none" stroke-linecap="round"/>
  <path d="M111 121Q113 118" stroke="#907060" stroke-width="1.5" stroke-linecap="round" fill="none"/>

  <!-- Long flowing white beard -->
  <path d="M60 113Q58 132Q60 150Q70 166Q84 176Q100 180Q116 176Q130 166Q140 150Q142 132Q140 113Q132 124Q118 132Q108 136Q100 138Q92 136Q82 132Q68 124Q60 113Z" fill="#e8e0d0"/>
  <path d="M80 126Q76 144Q78 162" stroke="#ccc4b4" stroke-width="2" fill="none" stroke-linecap="round"/>
  <path d="M100 130Q100 149Q100 167" stroke="#ccc4b4" stroke-width="2" fill="none" stroke-linecap="round"/>
  <path d="M120 126Q124 144Q122 162" stroke="#ccc4b4" stroke-width="2" fill="none" stroke-linecap="round"/>

  <!-- Subtle mystical glow -->
  <ellipse cx="100" cy="80" rx="52" ry="58" fill="none" stroke="#8050b0" stroke-width="0.8" opacity="0.2"/>
</svg>
