<svg xmlns="http://www.w3.org/2000/svg" viewBox="0 0 200 220">
  <defs>
    <radialGradient id="bg" cx="50%" cy="30%" r="70%">
      <stop offset="0%" stop-color="#2e1c0c"/>
      <stop offset="100%" stop-color="#0c0804"/>
    </radialGradient>
    <radialGradient id="face" cx="45%" cy="38%" r="58%">
      <stop offset="0%" stop-color="#d48858"/>
      <stop offset="70%" stop-color="#c47848"/>
      <stop offset="100%" stop-color="#a05c30"/>
    </radialGradient>
  </defs>
  <rect width="200" height="220" rx="0" fill="url(#bg)"/>

  <!-- Robe at bottom -->
  <path d="M0 220L0 188Q25 174 70 178Q100 182 130 178Q175 174 200 188L200 220Z" fill="#6b3e20"/>
  <path d="M72 178Q100 174Q128 178" stroke="#3d2010" stroke-width="2" stroke-linecap="round" fill="none"/>

  <!-- Neck -->
  <ellipse cx="100" cy="178" rx="24" ry="17" fill="#c47848"/>

  <!-- Ears -->
  <ellipse cx="18" cy="112" rx="13" ry="17" fill="#b86838"/>
  <ellipse cx="182" cy="112" rx="13" ry="17" fill="#b86838"/>

  <!-- Face — large, fills frame -->
  <ellipse cx="100" cy="115" rx="82" ry="88" fill="url(#face)"/>
  <!-- Cheek depth -->
  <ellipse cx="72" cy="130" rx="22" ry="16" fill="#b06030" opacity="0.18"/>
  <ellipse cx="128" cy="130" rx="22" ry="16" fill="#b06030" opacity="0.18"/>

  <!-- Forehead ash streak -->
  <ellipse cx="100" cy="64" rx="28" ry="6" fill="#807060" opacity="0.55"/>
  <ellipse cx="100" cy="64" rx="18" ry="3.5" fill="#908070" opacity="0.35"/>

  <!-- Hair — wild, dark, disheveled, fills top -->
  <path d="M18 120Q14 82Q22 56Q36 34Q56 18Q76 8Q100 4Q124 8Q144 18Q164 34Q178 56Q186 82Q182 120Q174 88Q158 64Q136 50Q118 44Q100 42Q82 44Q64 50Q42 64Q26 88Q18 120Z" fill="#1c1008"/>
  <!-- Irregular stray strands -->
  <path d="M22 108Q12 82Q18 58" stroke="#1c1008" stroke-width="6" stroke-linecap="round" fill="none"/>
  <path d="M30 92Q18 68Q26 48" stroke="#281808" stroke-width="4" stroke-linecap="round" fill="none"/>
  <path d="M178 108Q188 82Q182 58" stroke="#1c1008" stroke-width="6" stroke-linecap="round" fill="none"/>
  <path d="M170 92Q182 68Q174 48" stroke="#201408" stroke-width="4" stroke-linecap="round" fill="none"/>
  <path d="M90 10Q86 -2Q90 -10" stroke="#1c1008" stroke-width="5" stroke-linecap="round" fill="none"/>
  <path d="M110 8Q114 -4Q110 -12" stroke="#1c1008" stroke-width="4" stroke-linecap="round" fill="none"/>

  <!-- Eyebrows — heavy, furrowed in anguish -->
  <path d="M42 88Q58 79Q74 84" stroke="#1c1008" stroke-width="4" stroke-linecap="round" fill="none"/>
  <path d="M126 84Q142 79Q158 88" stroke="#1c1008" stroke-width="4" stroke-linecap="round" fill="none"/>
  <!-- Worry crease between brows -->
  <path d="M84 85Q100 81Q116 85" stroke="#8a4820" stroke-width="2" fill="none" opacity="0.7"/>

  <!-- LEFT EYE — large, sad, upward gaze -->
  <ellipse cx="66" cy="100" rx="19" ry="20" fill="#f2ece0"/>
  <!-- Upper eyelid shadow -->
  <ellipse cx="66" cy="94" rx="19" ry="10" fill="#d4906a" opacity="0.25"/>
  <ellipse cx="66" cy="98" rx="13" ry="14" fill="#6b3818"/>
  <circle cx="66" cy="97" r="9" fill="#140c04"/>
  <!-- Catchlights -->
  <circle cx="71" cy="92" r="3.5" fill="white"/>
  <circle cx="62" cy="104" r="1.5" fill="white" opacity="0.45"/>
  <!-- Upper lash line -->
  <path d="M47 99Q66 89Q85 99" stroke="#140c04" stroke-width="2.5" fill="none" stroke-linecap="round"/>
  <!-- Lower lash line -->
  <path d="M48 102Q66 112Q84 102" stroke="#9a6040" stroke-width="1.5" fill="none" stroke-linecap="round"/>
  <!-- Eyelashes -->
  <path d="M50 98Q47 93" stroke="#140c04" stroke-width="2" stroke-linecap="round" fill="none"/>
  <path d="M60 92Q58 87" stroke="#140c04" stroke-width="2" stroke-linecap="round" fill="none"/>
  <path d="M66 90Q66 85" stroke="#140c04" stroke-width="2" stroke-linecap="round" fill="none"/>
  <path d="M73 92Q75 87" stroke="#140c04" stroke-width="2" stroke-linecap="round" fill="none"/>
  <path d="M82 98Q85 93" stroke="#140c04" stroke-width="2" stroke-linecap="round" fill="none"/>

  <!-- RIGHT EYE — large, sad -->
  <ellipse cx="134" cy="100" rx="19" ry="20" fill="#f2ece0"/>
  <ellipse cx="134" cy="94" rx="19" ry="10" fill="#d4906a" opacity="0.25"/>
  <ellipse cx="134" cy="98" rx="13" ry="14" fill="#6b3818"/>
  <circle cx="134" cy="97" r="9" fill="#140c04"/>
  <circle cx="139" cy="92" r="3.5" fill="white"/>
  <circle cx="130" cy="104" r="1.5" fill="white" opacity="0.45"/>
  <path d="M115 99Q134 89Q153 99" stroke="#140c04" stroke-width="2.5" fill="none" stroke-linecap="round"/>
  <path d="M116 102Q134 112Q152 102" stroke="#9a6040" stroke-width="1.5" fill="none" stroke-linecap="round"/>
  <path d="M118 98Q115 93" stroke="#140c04" stroke-width="2" stroke-linecap="round" fill="none"/>
  <path d="M127 92Q125 87" stroke="#140c04" stroke-width="2" stroke-linecap="round" fill="none"/>
  <path d="M134 90Q134 85" stroke="#140c04" stroke-width="2" stroke-linecap="round" fill="none"/>
  <path d="M141 92Q143 87" stroke="#140c04" stroke-width="2" stroke-linecap="round" fill="none"/>
  <path d="M150 98Q153 93" stroke="#140c04" stroke-width="2" stroke-linecap="round" fill="none"/>

  <!-- Nose — Ghibli minimal but visible -->
  <path d="M94 126Q100 134Q106 126" stroke="#a05830" stroke-width="2.5" fill="none" stroke-linecap="round"/>

  <!-- Mouth — sorrowful, slightly open -->
  <path d="M76 148Q100 143Q124 148" stroke="#7a3c1c" stroke-width="3" fill="none" stroke-linecap="round"/>
  <path d="M78 149Q100 155Q122 149" stroke="#5a2c10" stroke-width="2" fill="none" stroke-linecap="round"/>
  <path d="M76 148Q72 153" stroke="#7a3c1c" stroke-width="2" stroke-linecap="round" fill="none"/>
  <path d="M124 148Q128 153" stroke="#7a3c1c" stroke-width="2" stroke-linecap="round" fill="none"/>

  <!-- Beard — unkempt, fills lower face -->
  <path d="M20 132Q18 154Q24 172Q40 192Q66 208Q100 214Q134 208Q160 192Q176 172Q182 154Q180 132Q168 148Q150 158Q128 164Q100 166Q72 164Q50 158Q32 148Q20 132Z" fill="#1c1008"/>
  <path d="M54 150Q50 170Q56 188" stroke="#2e1c10" stroke-width="2.5" fill="none" stroke-linecap="round"/>
  <path d="M100 158Q100 178Q100 196" stroke="#2e1c10" stroke-width="2.5" fill="none" stroke-linecap="round"/>
  <path d="M146 150Q150 170Q144 188" stroke="#2e1c10" stroke-width="2.5" fill="none" stroke-linecap="round"/>
  <path d="M76 154Q74 174Q78 190" stroke="#281808" stroke-width="1.5" fill="none" stroke-linecap="round"/>
  <path d="M124 154Q126 174Q122 190" stroke="#281808" stroke-width="1.5" fill="none" stroke-linecap="round"/>

  <!-- Tears on cheeks -->
  <path d="M48 110Q46 122Q48 134" stroke="#c8ddf0" stroke-width="2.5" fill="none" stroke-linecap="round" opacity="0.8"/>
  <path d="M152 110Q154 122Q152 134" stroke="#c8ddf0" stroke-width="2.5" fill="none" stroke-linecap="round" opacity="0.65"/>
</svg>
